<svg xmlns="http://www.w3.org/2000/svg" width="25.933" height="23.931" viewBox="0 0 25.933 23.931">
  <g id="Q3_icons" data-name="Q3 icons" transform="translate(0 0)">
    <path id="Path_5" data-name="Path 5" d="M19.8,10.513,9.516,20.77a1.612,1.612,0,0,0,0,2.393L19.8,33.42a1.829,1.829,0,0,0,2.333.171,1.614,1.614,0,0,0,.173-2.564l-7.43-7.351H33.19a1.71,1.71,0,1,0,0-3.419H14.873l7.43-7.351a1.614,1.614,0,0,0-.173-2.564,1.829,1.829,0,0,0-2.333.171Z" transform="translate(-8.985 -10.001)" fill="#f7ac15"/>
  </g>
</svg>
