<svg id="icons_Q2" data-name="icons Q2" xmlns="http://www.w3.org/2000/svg" width="27.006" height="27.006" viewBox="0 0 27.006 27.006">
  <path id="Path_3" data-name="Path 3" d="M30.59,13.983,21.074,4.4a1.282,1.282,0,0,0-1.89,0L4.4,19.18a1.35,1.35,0,0,0-.4.945V29.64a1.35,1.35,0,0,0,1.35,1.35h9.516a1.35,1.35,0,0,0,.945-.4L30.59,15.873a1.282,1.282,0,0,0,0-1.89ZM14.326,28.291H6.7V20.665L15.136,12.3l7.559,7.626ZM24.651,18.032l-7.626-7.626,3.1-3.172,7.626,7.694Z" transform="translate(-4 -3.985)" fill="#9827db"/>
</svg>
