<svg id="icons_Q2" data-name="icons Q2" xmlns="http://www.w3.org/2000/svg" width="22.015" height="22.015" viewBox="0 0 22.015 22.015">
  <path id="Path_3" data-name="Path 3" d="M25.677,12.136,17.919,4.323a1.045,1.045,0,0,0-1.54,0L4.33,16.372a1.1,1.1,0,0,0-.33.77V24.9A1.1,1.1,0,0,0,5.1,26h7.757a1.1,1.1,0,0,0,.77-.33L25.677,13.676a1.045,1.045,0,0,0,0-1.54ZM12.418,23.8H6.2V17.582l6.877-6.822,6.162,6.217Zm8.418-8.363L14.618,9.22l2.531-2.586,6.217,6.272Z" transform="translate(-4 -3.985)" fill="#f7ac15"/>
</svg>
