<svg xmlns="http://www.w3.org/2000/svg" width="25.93" height="25.93" viewBox="0 0 25.93 25.93">
  <path id="Icon_ionic-md-exit" data-name="Icon ionic-md-exit" d="M14.728,22.651l2.017,2.017,7.2-7.2-7.2-7.2-2.017,2.017,3.746,3.746H4.5v2.881H18.4ZM27.549,4.5H7.381A2.889,2.889,0,0,0,4.5,7.381v5.762H7.381V7.381H27.549V27.549H7.381V21.787H4.5v5.762A2.889,2.889,0,0,0,7.381,30.43H27.549a2.889,2.889,0,0,0,2.881-2.881V7.381A2.889,2.889,0,0,0,27.549,4.5Z" transform="translate(-4.5 -4.5)" fill="#9827db"/>
</svg>
