<svg xmlns="http://www.w3.org/2000/svg" width="21.967" height="21.967" viewBox="0 0 21.967 21.967">
  <path id="Icon_ionic-md-exit" data-name="Icon ionic-md-exit" d="M13.165,19.877l1.708,1.708,6.1-6.1-6.1-6.1L13.165,11.09l3.173,3.173H4.5V16.7H16.276ZM24.026,4.5H6.941A2.448,2.448,0,0,0,4.5,6.941v4.882H6.941V6.941H24.026V24.026H6.941V19.144H4.5v4.882a2.448,2.448,0,0,0,2.441,2.441H24.026a2.448,2.448,0,0,0,2.441-2.441V6.941A2.448,2.448,0,0,0,24.026,4.5Z" transform="translate(-4.5 -4.5)" fill="#fff"/>
</svg>
