<svg id="icons_Q2" data-name="icons Q2" xmlns="http://www.w3.org/2000/svg" width="23.669" height="25.25" viewBox="0 0 23.669 25.25">
  <path id="Path_2" data-name="Path 2" d="M15.833,5.006,25.3,13.783V24.845H21.158V16.368a1.193,1.193,0,0,0-1.183-1.2H11.691a1.193,1.193,0,0,0-1.183,1.2v8.477H6.366V13.783l9.467-8.777m0-3.006a.646.646,0,0,0-.414.18L4.354,12.34a1.213,1.213,0,0,0-.355.9V27.25h8.875V17.571h5.917V27.25h8.875V13.242a1.213,1.213,0,0,0-.355-.9L16.247,2.18A.646.646,0,0,0,15.833,2Z" transform="translate(-3.999 -2)" fill="#9827db"/>
</svg>
