<svg xmlns="http://www.w3.org/2000/svg" width="53.375" height="142.333" viewBox="0 0 53.375 142.333">
  <path id="Icon_awesome-info" data-name="Icon awesome-info" d="M5.56,117.933h5.56V77.775H5.56A5.56,5.56,0,0,1,0,72.215V58.935a5.56,5.56,0,0,1,5.56-5.56H36.7a5.56,5.56,0,0,1,5.56,5.56v59h5.56a5.56,5.56,0,0,1,5.56,5.56v13.28a5.56,5.56,0,0,1-5.56,5.56H5.56A5.56,5.56,0,0,1,0,136.773v-13.28A5.56,5.56,0,0,1,5.56,117.933ZM26.688,0A20.016,20.016,0,1,0,46.7,20.016,20.015,20.015,0,0,0,26.688,0Z" fill="#9827db"/>
</svg>
