<svg xmlns="http://www.w3.org/2000/svg" width="21.75" height="21.75" viewBox="0 0 21.75 21.75">
  <path id="Icon_awesome-parking" data-name="Icon awesome-parking" d="M19.42,2.25H2.33A2.331,2.331,0,0,0,0,4.58V21.67A2.331,2.331,0,0,0,2.33,24H19.42a2.331,2.331,0,0,0,2.33-2.33V4.58A2.331,2.331,0,0,0,19.42,2.25ZM11.652,16.232H9.321v2.33a.779.779,0,0,1-.777.777H6.991a.779.779,0,0,1-.777-.777V7.688a.779.779,0,0,1,.777-.777h4.661a4.661,4.661,0,0,1,0,9.321Zm0-6.214H9.321v3.107h2.33a1.554,1.554,0,0,0,0-3.107Z" transform="translate(0 -2.25)" fill="#fff"/>
</svg>
