<svg xmlns="http://www.w3.org/2000/svg" width="25.93" height="25.93" viewBox="0 0 25.93 25.93">
  <path id="Icon_awesome-parking" data-name="Icon awesome-parking" d="M23.152,2.25H2.778A2.779,2.779,0,0,0,0,5.028V25.4A2.779,2.779,0,0,0,2.778,28.18H23.152A2.779,2.779,0,0,0,25.93,25.4V5.028A2.779,2.779,0,0,0,23.152,2.25ZM13.891,18.919H11.113V21.7a.929.929,0,0,1-.926.926H8.335a.929.929,0,0,1-.926-.926V8.733a.929.929,0,0,1,.926-.926h5.556a5.556,5.556,0,0,1,0,11.113Zm0-7.409H11.113v3.7h2.778a1.852,1.852,0,0,0,0-3.7Z" transform="translate(0 -2.25)" fill="#9827db"/>
</svg>
